<mxfile host="app.diagrams.net" modified="2022-11-11T12:47:46.975Z" agent="5.0 (Windows NT 10.0; Win64; x64) AppleWebKit/537.36 (KHTML, like Gecko) Chrome/105.0.0.0 Safari/537.36 OPR/91.0.4516.95" etag="qKWjvo_vSVlii3pEcpnK" version="20.5.3" type="github">
  <diagram id="wEFlnI0YH98vnMDi-fSp" name="Страница 1">
    <mxGraphModel dx="1381" dy="795" grid="1" gridSize="10" guides="1" tooltips="1" connect="1" arrows="1" fold="1" page="1" pageScale="1" pageWidth="827" pageHeight="1169" math="0" shadow="0">
      <root>
        <mxCell id="0" />
        <mxCell id="1" parent="0" />
        <mxCell id="ge-EIk4XEAHEKLy1pQHp-9" style="edgeStyle=orthogonalEdgeStyle;rounded=0;orthogonalLoop=1;jettySize=auto;html=1;" edge="1" parent="1" source="ge-EIk4XEAHEKLy1pQHp-2" target="ge-EIk4XEAHEKLy1pQHp-8">
          <mxGeometry relative="1" as="geometry" />
        </mxCell>
        <mxCell id="ge-EIk4XEAHEKLy1pQHp-2" value="start" style="rounded=1;whiteSpace=wrap;html=1;" vertex="1" parent="1">
          <mxGeometry x="310" y="30" width="120" height="60" as="geometry" />
        </mxCell>
        <mxCell id="ge-EIk4XEAHEKLy1pQHp-11" style="edgeStyle=orthogonalEdgeStyle;rounded=0;orthogonalLoop=1;jettySize=auto;html=1;entryX=0.5;entryY=0;entryDx=0;entryDy=0;" edge="1" parent="1" source="ge-EIk4XEAHEKLy1pQHp-8" target="ge-EIk4XEAHEKLy1pQHp-10">
          <mxGeometry relative="1" as="geometry" />
        </mxCell>
        <mxCell id="ge-EIk4XEAHEKLy1pQHp-8" value="input number&lt;br&gt;sum = 0" style="shape=parallelogram;perimeter=parallelogramPerimeter;whiteSpace=wrap;html=1;fixedSize=1;" vertex="1" parent="1">
          <mxGeometry x="310" y="160" width="120" height="60" as="geometry" />
        </mxCell>
        <mxCell id="ge-EIk4XEAHEKLy1pQHp-18" value="True" style="edgeStyle=orthogonalEdgeStyle;rounded=0;orthogonalLoop=1;jettySize=auto;html=1;" edge="1" parent="1" source="ge-EIk4XEAHEKLy1pQHp-10" target="ge-EIk4XEAHEKLy1pQHp-17">
          <mxGeometry relative="1" as="geometry" />
        </mxCell>
        <mxCell id="ge-EIk4XEAHEKLy1pQHp-22" value="False" style="edgeStyle=orthogonalEdgeStyle;rounded=0;orthogonalLoop=1;jettySize=auto;html=1;" edge="1" parent="1" source="ge-EIk4XEAHEKLy1pQHp-10" target="ge-EIk4XEAHEKLy1pQHp-20">
          <mxGeometry relative="1" as="geometry">
            <Array as="points">
              <mxPoint x="160" y="340" />
              <mxPoint x="160" y="640" />
            </Array>
          </mxGeometry>
        </mxCell>
        <mxCell id="ge-EIk4XEAHEKLy1pQHp-10" value="i=0;i&amp;lt;number;i++" style="shape=hexagon;perimeter=hexagonPerimeter2;whiteSpace=wrap;html=1;fixedSize=1;" vertex="1" parent="1">
          <mxGeometry x="310" y="300" width="120" height="80" as="geometry" />
        </mxCell>
        <mxCell id="ge-EIk4XEAHEKLy1pQHp-24" style="edgeStyle=orthogonalEdgeStyle;rounded=0;orthogonalLoop=1;jettySize=auto;html=1;entryX=1;entryY=0.5;entryDx=0;entryDy=0;" edge="1" parent="1" source="ge-EIk4XEAHEKLy1pQHp-17" target="ge-EIk4XEAHEKLy1pQHp-10">
          <mxGeometry relative="1" as="geometry">
            <mxPoint x="370" y="400" as="targetPoint" />
            <Array as="points">
              <mxPoint x="540" y="500" />
              <mxPoint x="540" y="340" />
            </Array>
          </mxGeometry>
        </mxCell>
        <mxCell id="ge-EIk4XEAHEKLy1pQHp-17" value="sum = i + sum" style="whiteSpace=wrap;html=1;" vertex="1" parent="1">
          <mxGeometry x="310" y="470" width="120" height="60" as="geometry" />
        </mxCell>
        <mxCell id="ge-EIk4XEAHEKLy1pQHp-20" value="End" style="rounded=1;whiteSpace=wrap;html=1;" vertex="1" parent="1">
          <mxGeometry x="310" y="610" width="120" height="60" as="geometry" />
        </mxCell>
      </root>
    </mxGraphModel>
  </diagram>
</mxfile>
